<svg width="100%" viewBox="0 0 680 360" role="img" xmlns="http://www.w3.org/2000/svg">
<title>Fondo animado low-poly con lineas de neon azul</title>
<desc>Malla triangular oscura tipo low-poly con bordes que brillan en azul de forma pulsante, similar a un banner tecnologico.</desc>
<style>
.glow-wide { animation: pulseWide 2.4s ease-in-out infinite; }
.glow-core { animation: pulseCore 2.4s ease-in-out infinite; }
@keyframes pulseWide {
  0%, 100% { opacity: 0.05; }
  50% { opacity: 0.28; }
}
@keyframes pulseCore {
  0%, 100% { opacity: 0.25; }
  50% { opacity: 1; }
}
</style>
<rect x="0" y="0" width="680" height="360" fill="#0a0e13"/>
<polygon points="0.0,0.0 55.1,0.0 0.0,52.9" fill="#1d2631" stroke="#05070a" stroke-width="0.5"/>
<polygon points="55.1,0.0 54.9,49.1 0.0,52.9" fill="#1d2631" stroke="#05070a" stroke-width="0.5"/>
<polygon points="55.1,0.0 105.3,0.0 54.9,49.1" fill="#12181f" stroke="#05070a" stroke-width="0.5"/>
<polygon points="105.3,0.0 105.5,43.3 54.9,49.1" fill="#12181f" stroke="#05070a" stroke-width="0.5"/>
<polygon points="105.3,0.0 148.6,0.1 148.6,46.0" fill="#161d25" stroke="#05070a" stroke-width="0.5"/>
<polygon points="105.3,0.0 148.6,46.0 105.5,43.3" fill="#0e1319" stroke="#05070a" stroke-width="0.5"/>
<polygon points="148.6,0.1 200.5,0.0 212.6,50.1" fill="#161d25" stroke="#05070a" stroke-width="0.5"/>
<polygon points="148.6,0.1 212.6,50.1 148.6,46.0" fill="#161d25" stroke="#05070a" stroke-width="0.5"/>
<polygon points="200.5,0.0 253.4,0.0 212.6,50.1" fill="#161d25" stroke="#05070a" stroke-width="0.5"/>
<polygon points="253.4,0.0 258.0,53.0 212.6,50.1" fill="#1a222b" stroke="#05070a" stroke-width="0.5"/>
<polygon points="253.4,0.0 312.4,6.1 313.0,47.7" fill="#1d2631" stroke="#05070a" stroke-width="0.5"/>
<polygon points="253.4,0.0 313.0,47.7 258.0,53.0" fill="#1a222b" stroke="#05070a" stroke-width="0.5"/>
<polygon points="312.4,6.1 359.1,0.0 313.0,47.7" fill="#0e1319" stroke="#05070a" stroke-width="0.5"/>
<polygon points="359.1,0.0 371.7,55.1 313.0,47.7" fill="#161d25" stroke="#05070a" stroke-width="0.5"/>
<polygon points="359.1,0.0 420.9,8.3 371.7,55.1" fill="#1a222b" stroke="#05070a" stroke-width="0.5"/>
<polygon points="420.9,8.3 413.6,52.8 371.7,55.1" fill="#0e1319" stroke="#05070a" stroke-width="0.5"/>
<polygon points="420.9,8.3 472.2,0.0 471.2,58.4" fill="#1d2631" stroke="#05070a" stroke-width="0.5"/>
<polygon points="420.9,8.3 471.2,58.4 413.6,52.8" fill="#0e1319" stroke="#05070a" stroke-width="0.5"/>
<polygon points="472.2,0.0 532.0,0.0 527.4,47.5" fill="#1d2631" stroke="#05070a" stroke-width="0.5"/>
<polygon points="472.2,0.0 527.4,47.5 471.2,58.4" fill="#161d25" stroke="#05070a" stroke-width="0.5"/>
<polygon points="532.0,0.0 582.1,0.0 584.4,44.4" fill="#1d2631" stroke="#05070a" stroke-width="0.5"/>
<polygon points="532.0,0.0 584.4,44.4 527.4,47.5" fill="#1d2631" stroke="#05070a" stroke-width="0.5"/>
<polygon points="582.1,0.0 621.0,0.0 584.4,44.4" fill="#0e1319" stroke="#05070a" stroke-width="0.5"/>
<polygon points="621.0,0.0 626.2,56.2 584.4,44.4" fill="#161d25" stroke="#05070a" stroke-width="0.5"/>
<polygon points="621.0,0.0 676.4,5.9 673.4,51.2" fill="#161d25" stroke="#05070a" stroke-width="0.5"/>
<polygon points="621.0,0.0 673.4,51.2 626.2,56.2" fill="#161d25" stroke="#05070a" stroke-width="0.5"/>
<polygon points="0.0,52.9 54.9,49.1 0.0,106.0" fill="#1d2631" stroke="#05070a" stroke-width="0.5"/>
<polygon points="54.9,49.1 57.3,104.2 0.0,106.0" fill="#12181f" stroke="#05070a" stroke-width="0.5"/>
<polygon points="54.9,49.1 105.5,43.3 111.7,99.4" fill="#1a222b" stroke="#05070a" stroke-width="0.5"/>
<polygon points="54.9,49.1 111.7,99.4 57.3,104.2" fill="#1d2631" stroke="#05070a" stroke-width="0.5"/>
<polygon points="105.5,43.3 148.6,46.0 160.6,104.6" fill="#0e1319" stroke="#05070a" stroke-width="0.5"/>
<polygon points="105.5,43.3 160.6,104.6 111.7,99.4" fill="#12181f" stroke="#05070a" stroke-width="0.5"/>
<polygon points="148.6,46.0 212.6,50.1 210.7,102.0" fill="#12181f" stroke="#05070a" stroke-width="0.5"/>
<polygon points="148.6,46.0 210.7,102.0 160.6,104.6" fill="#161d25" stroke="#05070a" stroke-width="0.5"/>
<polygon points="212.6,50.1 258.0,53.0 210.7,102.0" fill="#12181f" stroke="#05070a" stroke-width="0.5"/>
<polygon points="258.0,53.0 267.9,111.1 210.7,102.0" fill="#12181f" stroke="#05070a" stroke-width="0.5"/>
<polygon points="258.0,53.0 313.0,47.7 313.4,105.9" fill="#1d2631" stroke="#05070a" stroke-width="0.5"/>
<polygon points="258.0,53.0 313.4,105.9 267.9,111.1" fill="#12181f" stroke="#05070a" stroke-width="0.5"/>
<polygon points="313.0,47.7 371.7,55.1 357.9,106.6" fill="#12181f" stroke="#05070a" stroke-width="0.5"/>
<polygon points="313.0,47.7 357.9,106.6 313.4,105.9" fill="#0e1319" stroke="#05070a" stroke-width="0.5"/>
<polygon points="371.7,55.1 413.6,52.8 357.9,106.6" fill="#1d2631" stroke="#05070a" stroke-width="0.5"/>
<polygon points="413.6,52.8 421.2,112.0 357.9,106.6" fill="#1d2631" stroke="#05070a" stroke-width="0.5"/>
<polygon points="413.6,52.8 471.2,58.4 476.8,98.9" fill="#1a222b" stroke="#05070a" stroke-width="0.5"/>
<polygon points="413.6,52.8 476.8,98.9 421.2,112.0" fill="#0e1319" stroke="#05070a" stroke-width="0.5"/>
<polygon points="471.2,58.4 527.4,47.5 520.9,106.0" fill="#0e1319" stroke="#05070a" stroke-width="0.5"/>
<polygon points="471.2,58.4 520.9,106.0 476.8,98.9" fill="#1d2631" stroke="#05070a" stroke-width="0.5"/>
<polygon points="527.4,47.5 584.4,44.4 566.4,102.1" fill="#1d2631" stroke="#05070a" stroke-width="0.5"/>
<polygon points="527.4,47.5 566.4,102.1 520.9,106.0" fill="#1a222b" stroke="#05070a" stroke-width="0.5"/>
<polygon points="584.4,44.4 626.2,56.2 621.4,95.8" fill="#161d25" stroke="#05070a" stroke-width="0.5"/>
<polygon points="584.4,44.4 621.4,95.8 566.4,102.1" fill="#0e1319" stroke="#05070a" stroke-width="0.5"/>
<polygon points="626.2,56.2 673.4,51.2 621.4,95.8" fill="#12181f" stroke="#05070a" stroke-width="0.5"/>
<polygon points="673.4,51.2 671.7,107.8 621.4,95.8" fill="#0e1319" stroke="#05070a" stroke-width="0.5"/>
<polygon points="0.0,106.0 57.3,104.2 0.0,149.6" fill="#12181f" stroke="#05070a" stroke-width="0.5"/>
<polygon points="57.3,104.2 50.3,161.2 0.0,149.6" fill="#161d25" stroke="#05070a" stroke-width="0.5"/>
<polygon points="57.3,104.2 111.7,99.4 50.3,161.2" fill="#161d25" stroke="#05070a" stroke-width="0.5"/>
<polygon points="111.7,99.4 96.7,153.3 50.3,161.2" fill="#1a222b" stroke="#05070a" stroke-width="0.5"/>
<polygon points="111.7,99.4 160.6,104.6 157.9,161.4" fill="#161d25" stroke="#05070a" stroke-width="0.5"/>
<polygon points="111.7,99.4 157.9,161.4 96.7,153.3" fill="#1a222b" stroke="#05070a" stroke-width="0.5"/>
<polygon points="160.6,104.6 210.7,102.0 157.9,161.4" fill="#161d25" stroke="#05070a" stroke-width="0.5"/>
<polygon points="210.7,102.0 215.2,161.0 157.9,161.4" fill="#0e1319" stroke="#05070a" stroke-width="0.5"/>
<polygon points="210.7,102.0 267.9,111.1 215.2,161.0" fill="#12181f" stroke="#05070a" stroke-width="0.5"/>
<polygon points="267.9,111.1 257.4,152.7 215.2,161.0" fill="#0e1319" stroke="#05070a" stroke-width="0.5"/>
<polygon points="267.9,111.1 313.4,105.9 311.2,161.4" fill="#161d25" stroke="#05070a" stroke-width="0.5"/>
<polygon points="267.9,111.1 311.2,161.4 257.4,152.7" fill="#161d25" stroke="#05070a" stroke-width="0.5"/>
<polygon points="313.4,105.9 357.9,106.6 311.2,161.4" fill="#0e1319" stroke="#05070a" stroke-width="0.5"/>
<polygon points="357.9,106.6 374.8,147.8 311.2,161.4" fill="#1d2631" stroke="#05070a" stroke-width="0.5"/>
<polygon points="357.9,106.6 421.2,112.0 374.8,147.8" fill="#0e1319" stroke="#05070a" stroke-width="0.5"/>
<polygon points="421.2,112.0 412.4,149.3 374.8,147.8" fill="#161d25" stroke="#05070a" stroke-width="0.5"/>
<polygon points="421.2,112.0 476.8,98.9 412.4,149.3" fill="#12181f" stroke="#05070a" stroke-width="0.5"/>
<polygon points="476.8,98.9 465.7,154.0 412.4,149.3" fill="#1a222b" stroke="#05070a" stroke-width="0.5"/>
<polygon points="476.8,98.9 520.9,106.0 465.7,154.0" fill="#1d2631" stroke="#05070a" stroke-width="0.5"/>
<polygon points="520.9,106.0 524.8,149.9 465.7,154.0" fill="#0e1319" stroke="#05070a" stroke-width="0.5"/>
<polygon points="520.9,106.0 566.4,102.1 524.8,149.9" fill="#12181f" stroke="#05070a" stroke-width="0.5"/>
<polygon points="566.4,102.1 566.0,152.8 524.8,149.9" fill="#0e1319" stroke="#05070a" stroke-width="0.5"/>
<polygon points="566.4,102.1 621.4,95.8 566.0,152.8" fill="#1d2631" stroke="#05070a" stroke-width="0.5"/>
<polygon points="621.4,95.8 625.2,155.5 566.0,152.8" fill="#1a222b" stroke="#05070a" stroke-width="0.5"/>
<polygon points="621.4,95.8 671.7,107.8 680.0,157.8" fill="#12181f" stroke="#05070a" stroke-width="0.5"/>
<polygon points="621.4,95.8 680.0,157.8 625.2,155.5" fill="#12181f" stroke="#05070a" stroke-width="0.5"/>
<polygon points="0.0,149.6 50.3,161.2 55.6,197.5" fill="#161d25" stroke="#05070a" stroke-width="0.5"/>
<polygon points="0.0,149.6 55.6,197.5 0.3,207.9" fill="#12181f" stroke="#05070a" stroke-width="0.5"/>
<polygon points="50.3,161.2 96.7,153.3 55.6,197.5" fill="#1a222b" stroke="#05070a" stroke-width="0.5"/>
<polygon points="96.7,153.3 112.1,210.9 55.6,197.5" fill="#12181f" stroke="#05070a" stroke-width="0.5"/>
<polygon points="96.7,153.3 157.9,161.4 164.0,211.2" fill="#161d25" stroke="#05070a" stroke-width="0.5"/>
<polygon points="96.7,153.3 164.0,211.2 112.1,210.9" fill="#1a222b" stroke="#05070a" stroke-width="0.5"/>
<polygon points="157.9,161.4 215.2,161.0 207.2,203.8" fill="#0e1319" stroke="#05070a" stroke-width="0.5"/>
<polygon points="157.9,161.4 207.2,203.8 164.0,211.2" fill="#1a222b" stroke="#05070a" stroke-width="0.5"/>
<polygon points="215.2,161.0 257.4,152.7 207.2,203.8" fill="#1d2631" stroke="#05070a" stroke-width="0.5"/>
<polygon points="257.4,152.7 254.1,208.2 207.2,203.8" fill="#1d2631" stroke="#05070a" stroke-width="0.5"/>
<polygon points="257.4,152.7 311.2,161.4 305.6,197.7" fill="#1a222b" stroke="#05070a" stroke-width="0.5"/>
<polygon points="257.4,152.7 305.6,197.7 254.1,208.2" fill="#12181f" stroke="#05070a" stroke-width="0.5"/>
<polygon points="311.2,161.4 374.8,147.8 305.6,197.7" fill="#161d25" stroke="#05070a" stroke-width="0.5"/>
<polygon points="374.8,147.8 360.7,199.5 305.6,197.7" fill="#0e1319" stroke="#05070a" stroke-width="0.5"/>
<polygon points="374.8,147.8 412.4,149.3 415.4,197.4" fill="#1a222b" stroke="#05070a" stroke-width="0.5"/>
<polygon points="374.8,147.8 415.4,197.4 360.7,199.5" fill="#12181f" stroke="#05070a" stroke-width="0.5"/>
<polygon points="412.4,149.3 465.7,154.0 461.4,199.3" fill="#1a222b" stroke="#05070a" stroke-width="0.5"/>
<polygon points="412.4,149.3 461.4,199.3 415.4,197.4" fill="#12181f" stroke="#05070a" stroke-width="0.5"/>
<polygon points="465.7,154.0 524.8,149.9 515.6,203.2" fill="#161d25" stroke="#05070a" stroke-width="0.5"/>
<polygon points="465.7,154.0 515.6,203.2 461.4,199.3" fill="#12181f" stroke="#05070a" stroke-width="0.5"/>
<polygon points="524.8,149.9 566.0,152.8 515.6,203.2" fill="#12181f" stroke="#05070a" stroke-width="0.5"/>
<polygon points="566.0,152.8 566.4,212.6 515.6,203.2" fill="#0e1319" stroke="#05070a" stroke-width="0.5"/>
<polygon points="566.0,152.8 625.2,155.5 566.4,212.6" fill="#1d2631" stroke="#05070a" stroke-width="0.5"/>
<polygon points="625.2,155.5 629.8,199.2 566.4,212.6" fill="#0e1319" stroke="#05070a" stroke-width="0.5"/>
<polygon points="625.2,155.5 680.0,157.8 675.3,202.9" fill="#1a222b" stroke="#05070a" stroke-width="0.5"/>
<polygon points="625.2,155.5 675.3,202.9 629.8,199.2" fill="#1d2631" stroke="#05070a" stroke-width="0.5"/>
<polygon points="0.3,207.9 55.6,197.5 0.0,250.2" fill="#1d2631" stroke="#05070a" stroke-width="0.5"/>
<polygon points="55.6,197.5 58.9,266.3 0.0,250.2" fill="#161d25" stroke="#05070a" stroke-width="0.5"/>
<polygon points="55.6,197.5 112.1,210.9 104.0,256.8" fill="#161d25" stroke="#05070a" stroke-width="0.5"/>
<polygon points="55.6,197.5 104.0,256.8 58.9,266.3" fill="#1a222b" stroke="#05070a" stroke-width="0.5"/>
<polygon points="112.1,210.9 164.0,211.2 104.0,256.8" fill="#161d25" stroke="#05070a" stroke-width="0.5"/>
<polygon points="164.0,211.2 149.1,249.8 104.0,256.8" fill="#1a222b" stroke="#05070a" stroke-width="0.5"/>
<polygon points="164.0,211.2 207.2,203.8 206.3,252.8" fill="#1d2631" stroke="#05070a" stroke-width="0.5"/>
<polygon points="164.0,211.2 206.3,252.8 149.1,249.8" fill="#161d25" stroke="#05070a" stroke-width="0.5"/>
<polygon points="207.2,203.8 254.1,208.2 206.3,252.8" fill="#1d2631" stroke="#05070a" stroke-width="0.5"/>
<polygon points="254.1,208.2 267.7,250.9 206.3,252.8" fill="#161d25" stroke="#05070a" stroke-width="0.5"/>
<polygon points="254.1,208.2 305.6,197.7 267.7,250.9" fill="#12181f" stroke="#05070a" stroke-width="0.5"/>
<polygon points="305.6,197.7 304.9,265.5 267.7,250.9" fill="#1a222b" stroke="#05070a" stroke-width="0.5"/>
<polygon points="305.6,197.7 360.7,199.5 304.9,265.5" fill="#12181f" stroke="#05070a" stroke-width="0.5"/>
<polygon points="360.7,199.5 366.7,250.6 304.9,265.5" fill="#1d2631" stroke="#05070a" stroke-width="0.5"/>
<polygon points="360.7,199.5 415.4,197.4 419.3,248.4" fill="#161d25" stroke="#05070a" stroke-width="0.5"/>
<polygon points="360.7,199.5 419.3,248.4 366.7,250.6" fill="#1d2631" stroke="#05070a" stroke-width="0.5"/>
<polygon points="415.4,197.4 461.4,199.3 419.3,248.4" fill="#0e1319" stroke="#05070a" stroke-width="0.5"/>
<polygon points="461.4,199.3 471.3,266.0 419.3,248.4" fill="#12181f" stroke="#05070a" stroke-width="0.5"/>
<polygon points="461.4,199.3 515.6,203.2 529.9,260.8" fill="#0e1319" stroke="#05070a" stroke-width="0.5"/>
<polygon points="461.4,199.3 529.9,260.8 471.3,266.0" fill="#0e1319" stroke="#05070a" stroke-width="0.5"/>
<polygon points="515.6,203.2 566.4,212.6 570.9,254.7" fill="#0e1319" stroke="#05070a" stroke-width="0.5"/>
<polygon points="515.6,203.2 570.9,254.7 529.9,260.8" fill="#1d2631" stroke="#05070a" stroke-width="0.5"/>
<polygon points="566.4,212.6 629.8,199.2 570.9,254.7" fill="#161d25" stroke="#05070a" stroke-width="0.5"/>
<polygon points="629.8,199.2 621.4,262.2 570.9,254.7" fill="#161d25" stroke="#05070a" stroke-width="0.5"/>
<polygon points="629.8,199.2 675.3,202.9 621.4,262.2" fill="#161d25" stroke="#05070a" stroke-width="0.5"/>
<polygon points="675.3,202.9 680.0,262.3 621.4,262.2" fill="#0e1319" stroke="#05070a" stroke-width="0.5"/>
<polygon points="0.0,250.2 58.9,266.3 58.2,317.5" fill="#12181f" stroke="#05070a" stroke-width="0.5"/>
<polygon points="0.0,250.2 58.2,317.5 0.0,303.4" fill="#161d25" stroke="#05070a" stroke-width="0.5"/>
<polygon points="58.9,266.3 104.0,256.8 58.2,317.5" fill="#1a222b" stroke="#05070a" stroke-width="0.5"/>
<polygon points="104.0,256.8 111.3,314.2 58.2,317.5" fill="#0e1319" stroke="#05070a" stroke-width="0.5"/>
<polygon points="104.0,256.8 149.1,249.8 111.3,314.2" fill="#12181f" stroke="#05070a" stroke-width="0.5"/>
<polygon points="149.1,249.8 162.9,313.0 111.3,314.2" fill="#0e1319" stroke="#05070a" stroke-width="0.5"/>
<polygon points="149.1,249.8 206.3,252.8 204.1,308.9" fill="#1a222b" stroke="#05070a" stroke-width="0.5"/>
<polygon points="149.1,249.8 204.1,308.9 162.9,313.0" fill="#1d2631" stroke="#05070a" stroke-width="0.5"/>
<polygon points="206.3,252.8 267.7,250.9 204.1,308.9" fill="#1a222b" stroke="#05070a" stroke-width="0.5"/>
<polygon points="267.7,250.9 258.8,299.9 204.1,308.9" fill="#12181f" stroke="#05070a" stroke-width="0.5"/>
<polygon points="267.7,250.9 304.9,265.5 258.8,299.9" fill="#161d25" stroke="#05070a" stroke-width="0.5"/>
<polygon points="304.9,265.5 305.0,304.5 258.8,299.9" fill="#1a222b" stroke="#05070a" stroke-width="0.5"/>
<polygon points="304.9,265.5 366.7,250.6 305.0,304.5" fill="#1a222b" stroke="#05070a" stroke-width="0.5"/>
<polygon points="366.7,250.6 361.6,312.1 305.0,304.5" fill="#1a222b" stroke="#05070a" stroke-width="0.5"/>
<polygon points="366.7,250.6 419.3,248.4 427.1,307.6" fill="#1d2631" stroke="#05070a" stroke-width="0.5"/>
<polygon points="366.7,250.6 427.1,307.6 361.6,312.1" fill="#1a222b" stroke="#05070a" stroke-width="0.5"/>
<polygon points="419.3,248.4 471.3,266.0 427.1,307.6" fill="#1a222b" stroke="#05070a" stroke-width="0.5"/>
<polygon points="471.3,266.0 479.0,317.6 427.1,307.6" fill="#161d25" stroke="#05070a" stroke-width="0.5"/>
<polygon points="471.3,266.0 529.9,260.8 479.0,317.6" fill="#12181f" stroke="#05070a" stroke-width="0.5"/>
<polygon points="529.9,260.8 531.6,306.1 479.0,317.6" fill="#1a222b" stroke="#05070a" stroke-width="0.5"/>
<polygon points="529.9,260.8 570.9,254.7 531.6,306.1" fill="#0e1319" stroke="#05070a" stroke-width="0.5"/>
<polygon points="570.9,254.7 570.1,303.5 531.6,306.1" fill="#1a222b" stroke="#05070a" stroke-width="0.5"/>
<polygon points="570.9,254.7 621.4,262.2 622.0,303.1" fill="#161d25" stroke="#05070a" stroke-width="0.5"/>
<polygon points="570.9,254.7 622.0,303.1 570.1,303.5" fill="#161d25" stroke="#05070a" stroke-width="0.5"/>
<polygon points="621.4,262.2 680.0,262.3 680.0,316.0" fill="#12181f" stroke="#05070a" stroke-width="0.5"/>
<polygon points="621.4,262.2 680.0,316.0 622.0,303.1" fill="#12181f" stroke="#05070a" stroke-width="0.5"/>
<polygon points="0.0,303.4 58.2,317.5 6.4,359.6" fill="#12181f" stroke="#05070a" stroke-width="0.5"/>
<polygon points="58.2,317.5 55.2,360.0 6.4,359.6" fill="#161d25" stroke="#05070a" stroke-width="0.5"/>
<polygon points="58.2,317.5 111.3,314.2 55.2,360.0" fill="#12181f" stroke="#05070a" stroke-width="0.5"/>
<polygon points="111.3,314.2 96.8,360.0 55.2,360.0" fill="#0e1319" stroke="#05070a" stroke-width="0.5"/>
<polygon points="111.3,314.2 162.9,313.0 96.8,360.0" fill="#1a222b" stroke="#05070a" stroke-width="0.5"/>
<polygon points="162.9,313.0 164.6,360.0 96.8,360.0" fill="#161d25" stroke="#05070a" stroke-width="0.5"/>
<polygon points="162.9,313.0 204.1,308.9 164.6,360.0" fill="#1d2631" stroke="#05070a" stroke-width="0.5"/>
<polygon points="204.1,308.9 213.9,359.6 164.6,360.0" fill="#161d25" stroke="#05070a" stroke-width="0.5"/>
<polygon points="204.1,308.9 258.8,299.9 255.5,360.0" fill="#1d2631" stroke="#05070a" stroke-width="0.5"/>
<polygon points="204.1,308.9 255.5,360.0 213.9,359.6" fill="#0e1319" stroke="#05070a" stroke-width="0.5"/>
<polygon points="258.8,299.9 305.0,304.5 310.7,360.0" fill="#0e1319" stroke="#05070a" stroke-width="0.5"/>
<polygon points="258.8,299.9 310.7,360.0 255.5,360.0" fill="#161d25" stroke="#05070a" stroke-width="0.5"/>
<polygon points="305.0,304.5 361.6,312.1 310.7,360.0" fill="#1d2631" stroke="#05070a" stroke-width="0.5"/>
<polygon points="361.6,312.1 375.0,358.1 310.7,360.0" fill="#161d25" stroke="#05070a" stroke-width="0.5"/>
<polygon points="361.6,312.1 427.1,307.6 375.0,358.1" fill="#1d2631" stroke="#05070a" stroke-width="0.5"/>
<polygon points="427.1,307.6 416.6,360.0 375.0,358.1" fill="#0e1319" stroke="#05070a" stroke-width="0.5"/>
<polygon points="427.1,307.6 479.0,317.6 475.0,353.9" fill="#1d2631" stroke="#05070a" stroke-width="0.5"/>
<polygon points="427.1,307.6 475.0,353.9 416.6,360.0" fill="#161d25" stroke="#05070a" stroke-width="0.5"/>
<polygon points="479.0,317.6 531.6,306.1 516.1,353.5" fill="#1d2631" stroke="#05070a" stroke-width="0.5"/>
<polygon points="479.0,317.6 516.1,353.5 475.0,353.9" fill="#1d2631" stroke="#05070a" stroke-width="0.5"/>
<polygon points="531.6,306.1 570.1,303.5 583.0,360.0" fill="#12181f" stroke="#05070a" stroke-width="0.5"/>
<polygon points="531.6,306.1 583.0,360.0 516.1,353.5" fill="#1d2631" stroke="#05070a" stroke-width="0.5"/>
<polygon points="570.1,303.5 622.0,303.1 621.0,360.0" fill="#161d25" stroke="#05070a" stroke-width="0.5"/>
<polygon points="570.1,303.5 621.0,360.0 583.0,360.0" fill="#12181f" stroke="#05070a" stroke-width="0.5"/>
<polygon points="622.0,303.1 680.0,316.0 621.0,360.0" fill="#161d25" stroke="#05070a" stroke-width="0.5"/>
<polygon points="680.0,316.0 680.0,360.0 621.0,360.0" fill="#1a222b" stroke="#05070a" stroke-width="0.5"/>
<path d="M 0.0,52.9 L 55.1,0.0 L 105.5,43.3 L 160.6,104.6 L 212.6,50.1 L 253.4,0.0 L 312.4,6.1 L 371.7,55.1 L 413.6,52.8 L 472.2,0.0 L 527.4,47.5 L 582.1,0.0 L 621.0,0.0 L 676.4,5.9" fill="none" stroke="#3aa8ff" stroke-width="5" stroke-linecap="round" stroke-linejoin="round" opacity="0.12" class="glow-wide" style="animation-delay:0s"/>
<path d="M 0.0,52.9 L 55.1,0.0 L 105.5,43.3 L 160.6,104.6 L 212.6,50.1 L 253.4,0.0 L 312.4,6.1 L 371.7,55.1 L 413.6,52.8 L 472.2,0.0 L 527.4,47.5 L 582.1,0.0 L 621.0,0.0 L 676.4,5.9" fill="none" stroke="#7fd4ff" stroke-width="1.4" stroke-linecap="round" stroke-linejoin="round" class="glow-core" style="animation-delay:0s"/>
<path d="M 253.4,0.0 L 313.0,47.7 L 313.4,105.9 L 257.4,152.7 L 254.1,208.2 L 267.7,250.9 L 258.8,299.9 L 255.5,360.0" fill="none" stroke="#3aa8ff" stroke-width="5" stroke-linecap="round" stroke-linejoin="round" opacity="0.12" class="glow-wide" style="animation-delay:0.6s"/>
<path d="M 253.4,0.0 L 313.0,47.7 L 313.4,105.9 L 257.4,152.7 L 254.1,208.2 L 267.7,250.9 L 258.8,299.9 L 255.5,360.0" fill="none" stroke="#7fd4ff" stroke-width="1.4" stroke-linecap="round" stroke-linejoin="round" class="glow-core" style="animation-delay:0.6s"/>
<path d="M 96.8,360.0 L 164.6,360.0 L 213.9,359.6 L 255.5,360.0 L 305.0,304.5 L 375.0,358.1 L 416.6,360.0 L 479.0,317.6" fill="none" stroke="#3aa8ff" stroke-width="5" stroke-linecap="round" stroke-linejoin="round" opacity="0.12" class="glow-wide" style="animation-delay:1.2s"/>
<path d="M 96.8,360.0 L 164.6,360.0 L 213.9,359.6 L 255.5,360.0 L 305.0,304.5 L 375.0,358.1 L 416.6,360.0 L 479.0,317.6" fill="none" stroke="#7fd4ff" stroke-width="1.4" stroke-linecap="round" stroke-linejoin="round" class="glow-core" style="animation-delay:1.2s"/>
<path d="M 671.7,107.8 L 680.0,157.8 L 629.8,199.2 L 621.4,262.2 L 622.0,303.1 L 621.0,360.0" fill="none" stroke="#3aa8ff" stroke-width="5" stroke-linecap="round" stroke-linejoin="round" opacity="0.12" class="glow-wide" style="animation-delay:1.8s"/>
<path d="M 671.7,107.8 L 680.0,157.8 L 629.8,199.2 L 621.4,262.2 L 622.0,303.1 L 621.0,360.0" fill="none" stroke="#7fd4ff" stroke-width="1.4" stroke-linecap="round" stroke-linejoin="round" class="glow-core" style="animation-delay:1.8s"/>
</svg>