<svg width="100%" viewBox="0 0 680 320" role="img" xmlns="http://www.w3.org/2000/svg">
<title>Fondo animado de red de nodos azul</title>
<desc>Grafo de nodos conectados por lineas sobre fondo azul oscuro, con pulsos de datos viajando entre nodos, estilo tecnologico.</desc>
<defs>
<linearGradient id="bgGrad" x1="0%" y1="0%" x2="100%" y2="100%">
<stop offset="0%" stop-color="#00111a"/>
<stop offset="100%" stop-color="#002966"/>
</linearGradient>
</defs>
<style>
.pulse-line { opacity: 0; animation: pulseLine 3.2s ease-in-out infinite; }
@keyframes pulseLine {
  0% { opacity: 0; }
  15% { opacity: 0.9; }
  40% { opacity: 0.2; }
  100% { opacity: 0; }
}
.pulse-dot { opacity: 0.9; }
</style>
<rect x="0" y="0" width="680" height="320" fill="url(#bgGrad)"/>
<line x1="558.9" y1="102.3" x2="515.5" y2="48.5" stroke="#3d8fd1" stroke-width="0.6" opacity="0.35"/>
<line x1="491.2" y1="59.0" x2="515.5" y2="48.5" stroke="#3d8fd1" stroke-width="0.6" opacity="0.35"/>
<line x1="429.6" y1="119.4" x2="372.9" y2="89.5" stroke="#3d8fd1" stroke-width="0.6" opacity="0.35"/>
<line x1="612.3" y1="271.2" x2="589.5" y2="294.1" stroke="#3d8fd1" stroke-width="0.6" opacity="0.35"/>
<line x1="346.3" y1="37.3" x2="360.0" y2="10.2" stroke="#3d8fd1" stroke-width="0.6" opacity="0.35"/>
<line x1="161.2" y1="19.6" x2="155.3" y2="31.3" stroke="#3d8fd1" stroke-width="0.6" opacity="0.35"/>
<line x1="163.6" y1="40.3" x2="186.7" y2="73.3" stroke="#3d8fd1" stroke-width="0.6" opacity="0.35"/>
<line x1="470.8" y1="112.1" x2="491.2" y2="59.0" stroke="#3d8fd1" stroke-width="0.6" opacity="0.35"/>
<line x1="183.4" y1="185.4" x2="233.1" y2="186.5" stroke="#3d8fd1" stroke-width="0.6" opacity="0.35"/>
<line x1="360.0" y1="10.2" x2="351.6" y2="46.3" stroke="#3d8fd1" stroke-width="0.6" opacity="0.35"/>
<line x1="641.8" y1="111.0" x2="652.3" y2="123.6" stroke="#3d8fd1" stroke-width="0.6" opacity="0.35"/>
<line x1="148.3" y1="90.1" x2="186.7" y2="73.3" stroke="#3d8fd1" stroke-width="0.6" opacity="0.35"/>
<line x1="461.8" y1="262.9" x2="431.7" y2="192.7" stroke="#3d8fd1" stroke-width="0.6" opacity="0.35"/>
<line x1="163.6" y1="40.3" x2="155.3" y2="31.3" stroke="#3d8fd1" stroke-width="0.6" opacity="0.35"/>
<line x1="641.8" y1="111.0" x2="667.4" y2="168.7" stroke="#3d8fd1" stroke-width="0.6" opacity="0.35"/>
<line x1="437.7" y1="192.7" x2="461.8" y2="262.9" stroke="#3d8fd1" stroke-width="0.6" opacity="0.35"/>
<line x1="542.7" y1="228.9" x2="612.3" y2="271.2" stroke="#3d8fd1" stroke-width="0.6" opacity="0.35"/>
<line x1="271.1" y1="284.4" x2="309.5" y2="296.1" stroke="#3d8fd1" stroke-width="0.6" opacity="0.35"/>
<line x1="160.4" y1="96.8" x2="148.3" y2="90.1" stroke="#3d8fd1" stroke-width="0.6" opacity="0.35"/>
<line x1="160.4" y1="96.8" x2="184.8" y2="84.0" stroke="#3d8fd1" stroke-width="0.6" opacity="0.35"/>
<line x1="346.3" y1="37.3" x2="330.8" y2="30.8" stroke="#3d8fd1" stroke-width="0.6" opacity="0.35"/>
<line x1="391.1" y1="221.4" x2="461.8" y2="262.9" stroke="#3d8fd1" stroke-width="0.6" opacity="0.35"/>
<line x1="542.7" y1="228.9" x2="513.3" y2="171.8" stroke="#3d8fd1" stroke-width="0.6" opacity="0.35"/>
<line x1="157.3" y1="230.9" x2="183.8" y2="160.2" stroke="#3d8fd1" stroke-width="0.6" opacity="0.35"/>
<line x1="73.8" y1="264.2" x2="22.9" y2="288.7" stroke="#3d8fd1" stroke-width="0.6" opacity="0.35"/>
<line x1="161.2" y1="19.6" x2="186.7" y2="73.3" stroke="#3d8fd1" stroke-width="0.6" opacity="0.35"/>
<line x1="612.3" y1="271.2" x2="666.8" y2="205.0" stroke="#3d8fd1" stroke-width="0.6" opacity="0.35"/>
<line x1="346.3" y1="37.3" x2="372.9" y2="89.5" stroke="#3d8fd1" stroke-width="0.6" opacity="0.35"/>
<line x1="557.4" y1="195.6" x2="513.3" y2="171.8" stroke="#3d8fd1" stroke-width="0.6" opacity="0.35"/>
<line x1="160.4" y1="96.8" x2="183.8" y2="160.2" stroke="#3d8fd1" stroke-width="0.6" opacity="0.35"/>
<line x1="470.8" y1="112.1" x2="429.6" y2="119.4" stroke="#3d8fd1" stroke-width="0.6" opacity="0.35"/>
<line x1="157.3" y1="230.9" x2="82.4" y2="198.2" stroke="#3d8fd1" stroke-width="0.6" opacity="0.35"/>
<line x1="652.3" y1="123.6" x2="667.4" y2="168.7" stroke="#3d8fd1" stroke-width="0.6" opacity="0.35"/>
<line x1="273.6" y1="75.8" x2="289.3" y2="73.5" stroke="#3d8fd1" stroke-width="0.6" opacity="0.35"/>
<line x1="432.0" y1="17.5" x2="360.0" y2="10.2" stroke="#3d8fd1" stroke-width="0.6" opacity="0.35"/>
<line x1="652.3" y1="123.6" x2="666.8" y2="205.0" stroke="#3d8fd1" stroke-width="0.6" opacity="0.35"/>
<line x1="459.9" y1="171.1" x2="431.7" y2="192.7" stroke="#3d8fd1" stroke-width="0.6" opacity="0.35"/>
<line x1="330.8" y1="30.8" x2="289.3" y2="73.5" stroke="#3d8fd1" stroke-width="0.6" opacity="0.35"/>
<line x1="542.7" y1="228.9" x2="589.5" y2="294.1" stroke="#3d8fd1" stroke-width="0.6" opacity="0.35"/>
<line x1="667.4" y1="168.7" x2="666.8" y2="205.0" stroke="#3d8fd1" stroke-width="0.6" opacity="0.35"/>
<line x1="515.5" y1="48.5" x2="491.8" y2="70.3" stroke="#3d8fd1" stroke-width="0.6" opacity="0.35"/>
<line x1="186.7" y1="73.3" x2="184.8" y2="84.0" stroke="#3d8fd1" stroke-width="0.6" opacity="0.35"/>
<line x1="160.4" y1="96.8" x2="186.7" y2="73.3" stroke="#3d8fd1" stroke-width="0.6" opacity="0.35"/>
<line x1="437.7" y1="192.7" x2="431.7" y2="192.7" stroke="#3d8fd1" stroke-width="0.6" opacity="0.35"/>
<line x1="346.3" y1="37.3" x2="351.6" y2="46.3" stroke="#3d8fd1" stroke-width="0.6" opacity="0.35"/>
<line x1="598.8" y1="36.1" x2="544.2" y2="11.9" stroke="#3d8fd1" stroke-width="0.6" opacity="0.35"/>
<line x1="391.1" y1="221.4" x2="437.7" y2="192.7" stroke="#3d8fd1" stroke-width="0.6" opacity="0.35"/>
<line x1="73.8" y1="264.2" x2="82.4" y2="198.2" stroke="#3d8fd1" stroke-width="0.6" opacity="0.35"/>
<line x1="598.8" y1="36.1" x2="588.4" y2="104.4" stroke="#3d8fd1" stroke-width="0.6" opacity="0.35"/>
<line x1="598.8" y1="36.1" x2="578.1" y2="13.4" stroke="#3d8fd1" stroke-width="0.6" opacity="0.35"/>
<line x1="491.2" y1="59.0" x2="491.8" y2="70.3" stroke="#3d8fd1" stroke-width="0.6" opacity="0.35"/>
<line x1="391.1" y1="221.4" x2="431.7" y2="192.7" stroke="#3d8fd1" stroke-width="0.6" opacity="0.35"/>
<line x1="544.2" y1="11.9" x2="578.1" y2="13.4" stroke="#3d8fd1" stroke-width="0.6" opacity="0.35"/>
<line x1="663.1" y1="202.0" x2="667.4" y2="168.7" stroke="#3d8fd1" stroke-width="0.6" opacity="0.35"/>
<line x1="542.7" y1="228.9" x2="557.4" y2="195.6" stroke="#3d8fd1" stroke-width="0.6" opacity="0.35"/>
<line x1="641.8" y1="111.0" x2="588.4" y2="104.4" stroke="#3d8fd1" stroke-width="0.6" opacity="0.35"/>
<line x1="183.4" y1="185.4" x2="183.8" y2="160.2" stroke="#3d8fd1" stroke-width="0.6" opacity="0.35"/>
<line x1="652.3" y1="123.6" x2="663.1" y2="202.0" stroke="#3d8fd1" stroke-width="0.6" opacity="0.35"/>
<line x1="273.6" y1="75.8" x2="330.8" y2="30.8" stroke="#3d8fd1" stroke-width="0.6" opacity="0.35"/>
<line x1="437.7" y1="192.7" x2="459.9" y2="171.1" stroke="#3d8fd1" stroke-width="0.6" opacity="0.35"/>
<line x1="491.2" y1="59.0" x2="433.0" y2="43.5" stroke="#3d8fd1" stroke-width="0.6" opacity="0.35"/>
<line x1="372.9" y1="89.5" x2="351.6" y2="46.3" stroke="#3d8fd1" stroke-width="0.6" opacity="0.35"/>
<line x1="163.6" y1="40.3" x2="161.2" y2="19.6" stroke="#3d8fd1" stroke-width="0.6" opacity="0.35"/>
<line x1="578.1" y1="13.4" x2="515.5" y2="48.5" stroke="#3d8fd1" stroke-width="0.6" opacity="0.35"/>
<line x1="588.4" y1="104.4" x2="558.9" y2="102.3" stroke="#3d8fd1" stroke-width="0.6" opacity="0.35"/>
<line x1="544.2" y1="11.9" x2="515.5" y2="48.5" stroke="#3d8fd1" stroke-width="0.6" opacity="0.35"/>
<line x1="369.7" y1="76.1" x2="346.3" y2="37.3" stroke="#3d8fd1" stroke-width="0.6" opacity="0.35"/>
<line x1="273.6" y1="75.8" x2="288.6" y2="29.1" stroke="#3d8fd1" stroke-width="0.6" opacity="0.35"/>
<line x1="288.6" y1="29.1" x2="289.3" y2="73.5" stroke="#3d8fd1" stroke-width="0.6" opacity="0.35"/>
<line x1="652.3" y1="123.6" x2="588.4" y2="104.4" stroke="#3d8fd1" stroke-width="0.6" opacity="0.35"/>
<line x1="186.7" y1="73.3" x2="155.3" y2="31.3" stroke="#3d8fd1" stroke-width="0.6" opacity="0.35"/>
<line x1="183.8" y1="160.2" x2="233.1" y2="186.5" stroke="#3d8fd1" stroke-width="0.6" opacity="0.35"/>
<line x1="369.7" y1="76.1" x2="372.9" y2="89.5" stroke="#3d8fd1" stroke-width="0.6" opacity="0.35"/>
<line x1="29.7" y1="75.6" x2="27.5" y2="69.7" stroke="#3d8fd1" stroke-width="0.6" opacity="0.35"/>
<line x1="73.8" y1="264.2" x2="161.1" y2="281.6" stroke="#3d8fd1" stroke-width="0.6" opacity="0.35"/>
<line x1="558.9" y1="102.3" x2="491.8" y2="70.3" stroke="#3d8fd1" stroke-width="0.6" opacity="0.35"/>
<line x1="157.3" y1="230.9" x2="233.1" y2="186.5" stroke="#3d8fd1" stroke-width="0.6" opacity="0.35"/>
<line x1="459.9" y1="171.1" x2="513.3" y2="171.8" stroke="#3d8fd1" stroke-width="0.6" opacity="0.35"/>
<line x1="663.1" y1="202.0" x2="666.8" y2="205.0" stroke="#3d8fd1" stroke-width="0.6" opacity="0.35"/>
<line x1="432.0" y1="17.5" x2="433.0" y2="43.5" stroke="#3d8fd1" stroke-width="0.6" opacity="0.35"/>
<line x1="157.3" y1="230.9" x2="183.4" y2="185.4" stroke="#3d8fd1" stroke-width="0.6" opacity="0.35"/>
<line x1="360.0" y1="10.2" x2="330.8" y2="30.8" stroke="#3d8fd1" stroke-width="0.6" opacity="0.35"/>
<line x1="429.6" y1="119.4" x2="459.9" y2="171.1" stroke="#3d8fd1" stroke-width="0.6" opacity="0.35"/>
<line x1="157.3" y1="230.9" x2="161.1" y2="281.6" stroke="#3d8fd1" stroke-width="0.6" opacity="0.35"/>
<line x1="470.8" y1="112.1" x2="491.8" y2="70.3" stroke="#3d8fd1" stroke-width="0.6" opacity="0.35"/>
<line x1="148.3" y1="90.1" x2="184.8" y2="84.0" stroke="#3d8fd1" stroke-width="0.6" opacity="0.35"/>
<line x1="432.0" y1="17.5" x2="491.2" y2="59.0" stroke="#3d8fd1" stroke-width="0.6" opacity="0.35"/>
<line x1="330.8" y1="30.8" x2="351.6" y2="46.3" stroke="#3d8fd1" stroke-width="0.6" opacity="0.35"/>
<line x1="369.7" y1="76.1" x2="351.6" y2="46.3" stroke="#3d8fd1" stroke-width="0.6" opacity="0.35"/>
<line x1="433.0" y1="43.5" x2="491.8" y2="70.3" stroke="#3d8fd1" stroke-width="0.6" opacity="0.35"/>
<line x1="288.6" y1="29.1" x2="330.8" y2="30.8" stroke="#3d8fd1" stroke-width="0.6" opacity="0.35"/>
<path d="M 667.4,168.7 L 652.3,123.6 L 588.4,104.4 L 598.8,36.1 L 578.1,13.4 L 515.5,48.5 L 491.2,59.0" fill="none" stroke="#b7efff" stroke-width="1.3" stroke-linecap="round" stroke-linejoin="round" class="pulse-line" style="animation-delay:0.5s"/>
<circle r="3" fill="#b7efff" class="pulse-dot" style="animation-delay:0.5s"><animateMotion dur="3.4s" repeatCount="indefinite" begin="0.5s" path="M 667.4,168.7 L 652.3,123.6 L 588.4,104.4 L 598.8,36.1 L 578.1,13.4 L 515.5,48.5 L 491.2,59.0"/></circle>
<path d="M 163.6,40.3 L 186.7,73.3 L 148.3,90.1 L 184.8,84.0 L 160.4,96.8 L 183.8,160.2 L 183.4,185.4" fill="none" stroke="#b7efff" stroke-width="1.3" stroke-linecap="round" stroke-linejoin="round" class="pulse-line" style="animation-delay:1.0s"/>
<circle r="3" fill="#b7efff" class="pulse-dot" style="animation-delay:1.0s"><animateMotion dur="3.8s" repeatCount="indefinite" begin="1.0s" path="M 163.6,40.3 L 186.7,73.3 L 148.3,90.1 L 184.8,84.0 L 160.4,96.8 L 183.8,160.2 L 183.4,185.4"/></circle>
<path d="M 148.3,90.1 L 160.4,96.8 L 186.7,73.3 L 163.6,40.3 L 155.3,31.3 L 161.2,19.6" fill="none" stroke="#b7efff" stroke-width="1.3" stroke-linecap="round" stroke-linejoin="round" class="pulse-line" style="animation-delay:1.5s"/>
<circle r="3" fill="#b7efff" class="pulse-dot" style="animation-delay:1.5s"><animateMotion dur="3.0s" repeatCount="indefinite" begin="1.5s" path="M 148.3,90.1 L 160.4,96.8 L 186.7,73.3 L 163.6,40.3 L 155.3,31.3 L 161.2,19.6"/></circle>
<path d="M 22.9,288.7 L 73.8,264.2 L 161.1,281.6 L 157.3,230.9 L 82.4,198.2" fill="none" stroke="#b7efff" stroke-width="1.3" stroke-linecap="round" stroke-linejoin="round" class="pulse-line" style="animation-delay:2.0s"/>
<circle r="3" fill="#b7efff" class="pulse-dot" style="animation-delay:2.0s"><animateMotion dur="3.4s" repeatCount="indefinite" begin="2.0s" path="M 22.9,288.7 L 73.8,264.2 L 161.1,281.6 L 157.3,230.9 L 82.4,198.2"/></circle>
<path d="M 288.6,29.1 L 273.6,75.8 L 289.3,73.5 L 330.8,30.8 L 346.3,37.3 L 369.7,76.1 L 372.9,89.5" fill="none" stroke="#b7efff" stroke-width="1.3" stroke-linecap="round" stroke-linejoin="round" class="pulse-line" style="animation-delay:2.5s"/>
<circle r="3" fill="#b7efff" class="pulse-dot" style="animation-delay:2.5s"><animateMotion dur="3.8s" repeatCount="indefinite" begin="2.5s" path="M 288.6,29.1 L 273.6,75.8 L 289.3,73.5 L 330.8,30.8 L 346.3,37.3 L 369.7,76.1 L 372.9,89.5"/></circle>
<circle cx="432.0" cy="17.5" r="2.0" fill="#b7efff" opacity="0.85"/>
<circle cx="157.3" cy="230.9" r="2.7" fill="#b7efff" opacity="0.85"/>
<circle cx="598.8" cy="36.1" r="2.3" fill="#b7efff" opacity="0.85"/>
<circle cx="29.7" cy="75.6" r="2.4" fill="#b7efff" opacity="0.85"/>
<circle cx="27.5" cy="69.7" r="2.6" fill="#b7efff" opacity="0.85"/>
<circle cx="369.7" cy="76.1" r="2.5" fill="#b7efff" opacity="0.85"/>
<circle cx="544.2" cy="11.9" r="2.9" fill="#b7efff" opacity="0.85"/>
<circle cx="470.8" cy="112.1" r="1.8" fill="#b7efff" opacity="0.85"/>
<circle cx="641.8" cy="111.0" r="1.7" fill="#b7efff" opacity="0.85"/>
<circle cx="73.8" cy="264.2" r="2.6" fill="#b7efff" opacity="0.85"/>
<circle cx="542.7" cy="228.9" r="2.5" fill="#b7efff" opacity="0.85"/>
<circle cx="652.3" cy="123.6" r="2.5" fill="#b7efff" opacity="0.85"/>
<circle cx="557.4" cy="195.6" r="3.0" fill="#b7efff" opacity="0.85"/>
<circle cx="391.1" cy="221.4" r="1.7" fill="#b7efff" opacity="0.85"/>
<circle cx="160.4" cy="96.8" r="1.7" fill="#b7efff" opacity="0.85"/>
<circle cx="163.6" cy="40.3" r="2.0" fill="#b7efff" opacity="0.85"/>
<circle cx="429.6" cy="119.4" r="2.2" fill="#b7efff" opacity="0.85"/>
<circle cx="148.3" cy="90.1" r="3.1" fill="#b7efff" opacity="0.85"/>
<circle cx="437.7" cy="192.7" r="1.9" fill="#b7efff" opacity="0.85"/>
<circle cx="491.2" cy="59.0" r="2.2" fill="#b7efff" opacity="0.85"/>
<circle cx="663.1" cy="202.0" r="2.5" fill="#b7efff" opacity="0.85"/>
<circle cx="461.8" cy="262.9" r="2.8" fill="#b7efff" opacity="0.85"/>
<circle cx="161.2" cy="19.6" r="2.1" fill="#b7efff" opacity="0.85"/>
<circle cx="186.7" cy="73.3" r="3.1" fill="#b7efff" opacity="0.85"/>
<circle cx="588.4" cy="104.4" r="2.6" fill="#b7efff" opacity="0.85"/>
<circle cx="271.1" cy="284.4" r="2.3" fill="#b7efff" opacity="0.85"/>
<circle cx="184.8" cy="84.0" r="2.5" fill="#b7efff" opacity="0.85"/>
<circle cx="183.4" cy="185.4" r="3.0" fill="#b7efff" opacity="0.85"/>
<circle cx="273.6" cy="75.8" r="3.2" fill="#b7efff" opacity="0.85"/>
<circle cx="346.3" cy="37.3" r="1.7" fill="#b7efff" opacity="0.85"/>
<circle cx="82.4" cy="198.2" r="2.9" fill="#b7efff" opacity="0.85"/>
<circle cx="288.6" cy="29.1" r="2.2" fill="#b7efff" opacity="0.85"/>
<circle cx="667.4" cy="168.7" r="3.2" fill="#b7efff" opacity="0.85"/>
<circle cx="578.1" cy="13.4" r="2.8" fill="#b7efff" opacity="0.85"/>
<circle cx="459.9" cy="171.1" r="2.0" fill="#b7efff" opacity="0.85"/>
<circle cx="433.0" cy="43.5" r="2.3" fill="#b7efff" opacity="0.85"/>
<circle cx="309.5" cy="296.1" r="3.0" fill="#b7efff" opacity="0.85"/>
<circle cx="183.8" cy="160.2" r="1.9" fill="#b7efff" opacity="0.85"/>
<circle cx="612.3" cy="271.2" r="2.1" fill="#b7efff" opacity="0.85"/>
<circle cx="431.7" cy="192.7" r="1.8" fill="#b7efff" opacity="0.85"/>
<circle cx="513.3" cy="171.8" r="2.8" fill="#b7efff" opacity="0.85"/>
<circle cx="360.0" cy="10.2" r="2.1" fill="#b7efff" opacity="0.85"/>
<circle cx="22.9" cy="288.7" r="3.0" fill="#b7efff" opacity="0.85"/>
<circle cx="558.9" cy="102.3" r="1.7" fill="#b7efff" opacity="0.85"/>
<circle cx="589.5" cy="294.1" r="1.7" fill="#b7efff" opacity="0.85"/>
<circle cx="330.8" cy="30.8" r="2.8" fill="#b7efff" opacity="0.85"/>
<circle cx="515.5" cy="48.5" r="2.4" fill="#b7efff" opacity="0.85"/>
<circle cx="372.9" cy="89.5" r="3.0" fill="#b7efff" opacity="0.85"/>
<circle cx="289.3" cy="73.5" r="2.5" fill="#b7efff" opacity="0.85"/>
<circle cx="491.8" cy="70.3" r="2.1" fill="#b7efff" opacity="0.85"/>
<circle cx="666.8" cy="205.0" r="2.3" fill="#b7efff" opacity="0.85"/>
<circle cx="351.6" cy="46.3" r="2.0" fill="#b7efff" opacity="0.85"/>
<circle cx="233.1" cy="186.5" r="2.0" fill="#b7efff" opacity="0.85"/>
<circle cx="155.3" cy="31.3" r="2.6" fill="#b7efff" opacity="0.85"/>
<circle cx="161.1" cy="281.6" r="3.0" fill="#b7efff" opacity="0.85"/>
</svg>